<svg width="41" height="41" viewBox="0 0 41 41" fill="none" xmlns="http://www.w3.org/2000/svg">
<path d="M17.9375 35.875C17.9375 35.875 15.375 35.875 15.375 33.3125C15.375 30.75 17.9375 23.0625 28.1875 23.0625C38.4375 23.0625 41 30.75 41 33.3125C41 35.875 38.4375 35.875 38.4375 35.875H17.9375ZM28.1875 20.5C30.2264 20.5 32.1817 19.6901 33.6234 18.2484C35.0651 16.8067 35.875 14.8514 35.875 12.8125C35.875 10.7736 35.0651 8.8183 33.6234 7.37662C32.1817 5.93493 30.2264 5.125 28.1875 5.125C26.1486 5.125 24.1933 5.93493 22.7516 7.37662C21.3099 8.8183 20.5 10.7736 20.5 12.8125C20.5 14.8514 21.3099 16.8067 22.7516 18.2484C24.1933 19.6901 26.1486 20.5 28.1875 20.5Z" fill="black"/>
<path fill-rule="evenodd" clip-rule="evenodd" d="M13.366 35.8746C12.9861 35.0747 12.7967 34.1976 12.8125 33.3121C12.8125 29.8399 14.555 26.2653 17.7735 23.7796C16.167 23.2846 14.4934 23.0426 12.8125 23.0621C2.5625 23.0621 0 30.7496 0 33.3121C0 35.8746 2.5625 35.8746 2.5625 35.8746H13.366Z" fill="black"/>
<path d="M11.5312 20.5C13.2303 20.5 14.8597 19.8251 16.0612 18.6237C17.2626 17.4222 17.9375 15.7928 17.9375 14.0938C17.9375 12.3947 17.2626 10.7653 16.0612 9.56385C14.8597 8.36244 13.2303 7.6875 11.5312 7.6875C9.83221 7.6875 8.20275 8.36244 7.00135 9.56385C5.79994 10.7653 5.125 12.3947 5.125 14.0938C5.125 15.7928 5.79994 17.4222 7.00135 18.6237C8.20275 19.8251 9.83221 20.5 11.5312 20.5Z" fill="black"/>
</svg>
